<?xml version="1.0" encoding="UTF-8"?>
<svg version="1.1" xmlns="http://www.w3.org/2000/svg" width="500" height="500">
<path d="M0 0 C13.11164775 13.72149183 17.26638853 31.37276062 18.25378418 49.85604858 C18.29469287 50.59071708 18.33560157 51.32538558 18.37774992 52.08231676 C18.76559556 59.50822489 18.8539362 66.93064479 18.87695312 74.36572266 C18.88492884 75.83156047 18.89331917 77.29739607 18.90208435 78.76322937 C18.91991513 81.88081826 18.93500785 84.99840304 18.94786072 88.11601639 C18.96838045 93.06145577 18.99598516 98.00684135 19.02453613 102.95223999 C19.08922483 114.33716707 19.14498311 125.72213432 19.20052338 137.10710907 C19.25160292 147.56095968 19.30465102 158.01479058 19.36504889 168.46859205 C19.39310409 173.36925458 19.41680022 178.26991154 19.43697357 183.17061257 C19.45051297 186.23384504 19.46791304 189.29704736 19.48628426 192.36025429 C19.4939327 193.76333529 19.50004762 195.16642578 19.50437737 196.56952095 C19.53111607 204.91957072 19.83419457 213.19065969 20.45709991 221.51352501 C21.55178942 237.18779574 19.94276749 252.3273476 9.59375 264.78125 C2.12378324 272.74105065 -7.81074341 277.24540395 -18.3125 279.8125 C-19.54115494 298.27645337 -15.34595295 317.08664824 -11.3125 335 C-11.0757959 336.06766602 -10.8390918 337.13533203 -10.59521484 338.23535156 C-8.7592352 346.02986309 -6.28642988 352.73979552 -1.1875 359 C3.53526465 365.16583163 4.40257562 370.10813682 3.6875 377.8125 C1.54380249 389.2715376 -7.17360753 399.80851628 -16.5559082 406.38500977 C-18.96263518 407.84776353 -21.39935264 409.21975603 -23.875 410.5625 C-24.78411133 411.0670874 -25.69322266 411.5716748 -26.62988281 412.09155273 C-29.51493125 413.68266631 -32.41204714 415.24967004 -35.3125 416.8125 C-36.2411084 417.31861816 -37.1697168 417.82473633 -38.12646484 418.34619141 C-76.1272819 438.99837587 -116.20622374 453.90989418 -159.3125 458.8125 C-160.405625 458.94527344 -161.49875 459.07804687 -162.625 459.21484375 C-196.20459746 462.69681906 -196.20459746 462.69681906 -208.09375 455.015625 C-210.71913171 452.40873189 -211.02830046 451.45519115 -211.3125 447.8125 C-210.65955202 445.31623243 -209.94471028 443.04797373 -209.0390625 440.6484375 C-208.79586273 439.97454987 -208.55266296 439.30066223 -208.30209351 438.60635376 C-207.5254167 436.46233065 -206.73185213 434.32502937 -205.9375 432.1875 C-205.41031678 430.74260349 -204.88426275 429.29729446 -204.359375 427.8515625 C-203.39715579 425.20487434 -202.42811747 422.56090007 -201.45166016 419.91943359 C-200.70915928 417.8943444 -199.99457725 415.85873176 -199.3125 413.8125 C-200.22725098 413.74256836 -201.14200195 413.67263672 -202.08447266 413.60058594 C-220.00175605 412.20244891 -237.73508693 410.7385718 -255.3125 406.8125 C-256.05564453 406.65136719 -256.79878906 406.49023438 -257.56445312 406.32421875 C-273.88126177 402.71131603 -273.88126177 402.71131603 -278.609375 395.9609375 C-281.74333332 390.4013813 -281.94806598 385.60899031 -280.52148438 379.33203125 C-279.96944336 377.49705078 -279.96944336 377.49705078 -279.40625 375.625 C-278.99140943 374.21203704 -278.57729996 372.79885928 -278.16381836 371.38549805 C-277.94370087 370.64343109 -277.72358337 369.90136414 -277.49679565 369.1368103 C-267.15195351 333.99904049 -261.49773693 297.99878858 -255.77684021 261.87367249 C-254.57040278 254.29297638 -253.24794848 246.74101463 -251.8215332 239.19873047 C-251.33664309 235.97310656 -251.05189463 233.06458221 -251.3125 229.8125 C-253.49864223 227.59410297 -253.49864223 227.59410297 -256.4375 225.875 C-262.02969443 222.11324034 -267.1017628 218.44471159 -269.3125 211.8125 C-270.13522003 205.09361973 -268.05900651 200.2567698 -264.3125 194.8125 C-258.57948465 188.61698929 -251.81655509 183.56804587 -245.09545898 178.50317383 C-240.72366866 175.19315066 -236.64825368 171.64372906 -232.62890625 167.91796875 C-230.3125 165.8125 -230.3125 165.8125 -227.390625 163.6171875 C-223.43583195 160.34293719 -221.10105043 156.11595663 -218.5 151.75 C-207.82628062 134.32628062 -207.82628062 134.32628062 -201.3125 127.8125 C-201.63939466 124.32562358 -203.27042724 122.41120732 -205.5 119.8125 C-212.13816978 111.55927036 -216.81608406 102.39396967 -216.64453125 91.6953125 C-214.83628127 75.99544794 -203.20111839 58.64937267 -193.3125 46.8125 C-192.49265625 45.82894531 -191.6728125 44.84539062 -190.828125 43.83203125 C-173.7706854 24.02039229 -150.75192148 11.33583961 -126.3125 2.8125 C-125.14098389 2.39943604 -125.14098389 2.39943604 -123.94580078 1.97802734 C-89.92022924 -9.76005192 -32.60514073 -21.53169671 0 0 Z " fill="#B7B6B6" transform="translate(380.3125,25.1875)"/>
<path d="M0 0 C13.11164775 13.72149183 17.26638853 31.37276062 18.25378418 49.85604858 C18.29469287 50.59071708 18.33560157 51.32538558 18.37774992 52.08231676 C18.76559556 59.50822489 18.8539362 66.93064479 18.87695312 74.36572266 C18.88492884 75.83156047 18.89331917 77.29739607 18.90208435 78.76322937 C18.91991513 81.88081826 18.93500785 84.99840304 18.94786072 88.11601639 C18.96838045 93.06145577 18.99598516 98.00684135 19.02453613 102.95223999 C19.08922483 114.33716707 19.14498311 125.72213432 19.20052338 137.10710907 C19.25160292 147.56095968 19.30465102 158.01479058 19.36504889 168.46859205 C19.39310409 173.36925458 19.41680022 178.26991154 19.43697357 183.17061257 C19.45051297 186.23384504 19.46791304 189.29704736 19.48628426 192.36025429 C19.4939327 193.76333529 19.50004762 195.16642578 19.50437737 196.56952095 C19.53111607 204.91957072 19.83419457 213.19065969 20.45709991 221.51352501 C21.55178942 237.18779574 19.94276749 252.3273476 9.59375 264.78125 C2.12378324 272.74105065 -7.81074341 277.24540395 -18.3125 279.8125 C-19.54115494 298.27645337 -15.34595295 317.08664824 -11.3125 335 C-11.0757959 336.06766602 -10.8390918 337.13533203 -10.59521484 338.23535156 C-8.7592352 346.02986309 -6.28642988 352.73979552 -1.1875 359 C3.53526465 365.16583163 4.40257562 370.10813682 3.6875 377.8125 C1.54380249 389.2715376 -7.17360753 399.80851628 -16.5559082 406.38500977 C-18.96263518 407.84776353 -21.39935264 409.21975603 -23.875 410.5625 C-24.78411133 411.0670874 -25.69322266 411.5716748 -26.62988281 412.09155273 C-29.51493125 413.68266631 -32.41204714 415.24967004 -35.3125 416.8125 C-36.2411084 417.31861816 -37.1697168 417.82473633 -38.12646484 418.34619141 C-76.1272819 438.99837587 -116.20622374 453.90989418 -159.3125 458.8125 C-160.405625 458.94527344 -161.49875 459.07804687 -162.625 459.21484375 C-196.20459746 462.69681906 -196.20459746 462.69681906 -208.09375 455.015625 C-210.71913171 452.40873189 -211.02830046 451.45519115 -211.3125 447.8125 C-210.65955202 445.31623243 -209.94471028 443.04797373 -209.0390625 440.6484375 C-208.79586273 439.97454987 -208.55266296 439.30066223 -208.30209351 438.60635376 C-207.5254167 436.46233065 -206.73185213 434.32502937 -205.9375 432.1875 C-205.41031678 430.74260349 -204.88426275 429.29729446 -204.359375 427.8515625 C-203.39715579 425.20487434 -202.42811747 422.56090007 -201.45166016 419.91943359 C-200.70915928 417.8943444 -199.99457725 415.85873176 -199.3125 413.8125 C-200.22725098 413.74256836 -201.14200195 413.67263672 -202.08447266 413.60058594 C-220.00175605 412.20244891 -237.73508693 410.7385718 -255.3125 406.8125 C-256.05564453 406.65136719 -256.79878906 406.49023438 -257.56445312 406.32421875 C-273.88126177 402.71131603 -273.88126177 402.71131603 -278.609375 395.9609375 C-281.74333332 390.4013813 -281.94806598 385.60899031 -280.52148438 379.33203125 C-279.96944336 377.49705078 -279.96944336 377.49705078 -279.40625 375.625 C-278.99140943 374.21203704 -278.57729996 372.79885928 -278.16381836 371.38549805 C-277.94370087 370.64343109 -277.72358337 369.90136414 -277.49679565 369.1368103 C-267.15195351 333.99904049 -261.49773693 297.99878858 -255.77684021 261.87367249 C-254.57040278 254.29297638 -253.24794848 246.74101463 -251.8215332 239.19873047 C-251.33664309 235.97310656 -251.05189463 233.06458221 -251.3125 229.8125 C-253.49864223 227.59410297 -253.49864223 227.59410297 -256.4375 225.875 C-262.02969443 222.11324034 -267.1017628 218.44471159 -269.3125 211.8125 C-269.56593766 207.25062214 -269.31419177 203.94098928 -267.3125 199.8125 C-266.9825 199.8125 -266.6525 199.8125 -266.3125 199.8125 C-266.09213136 203.66895121 -266.70894899 206.30473216 -268.3125 209.8125 C-267.68988281 209.47895508 -267.06726563 209.14541016 -266.42578125 208.80175781 C-262.03874281 207.40775846 -258.06148196 207.74597317 -253.5 207.984375 C-252.53586182 208.02685364 -251.57172363 208.06933228 -250.57836914 208.11309814 C-248.53051852 208.20557879 -246.48290452 208.30343229 -244.43554688 208.40625 C-241.37933472 208.55915617 -238.32276417 208.69520591 -235.265625 208.828125 C-198.36118479 210.50383907 -198.36118479 210.50383907 -184.75 214.5625 C-183.83508789 214.82490479 -182.92017578 215.08730957 -181.97753906 215.35766602 C-169.5614385 219.05535114 -154.46701174 225.36528122 -147.3125 236.8125 C-146.96450882 240.29241184 -146.73794261 242.66338521 -148.3125 245.8125 C-161.22238517 246.15882379 -173.90758938 245.89047023 -186.75 244.4375 C-187.86737549 244.31141357 -188.98475098 244.18532715 -190.13598633 244.05541992 C-195.60414645 243.39392564 -200.9233963 242.53009911 -206.28149414 241.25878906 C-209.43158463 240.56659464 -212.60981645 240.2342754 -215.8125 239.875 C-220.93616357 239.23390096 -225.51204198 238.37015342 -230.28515625 236.3984375 C-232.98608075 235.61782348 -235.51429833 235.77683595 -238.3125 235.8125 C-238.50884033 237.06160156 -238.70518066 238.31070313 -238.9074707 239.59765625 C-239.64876472 244.30961846 -240.39316767 249.02108546 -241.13842773 253.73242188 C-241.45826338 255.75703127 -241.77729765 257.78176745 -242.09545898 259.80664062 C-243.98788112 271.84661768 -245.97198982 283.85061581 -248.3125 295.8125 C-247.40129395 295.01561768 -246.49008789 294.21873535 -245.55126953 293.39770508 C-243.26024312 291.49290904 -241.43325815 290.14767328 -238.4921875 289.44921875 C-237.80237793 289.28429932 -237.11256836 289.11937988 -236.40185547 288.94946289 C-235.67111816 288.80114014 -234.94038086 288.65281738 -234.1875 288.5 C-233.40906738 288.33685303 -232.63063477 288.17370605 -231.82861328 288.00561523 C-218.38091042 285.44854457 -205.20954851 286.21403626 -191.90234375 289.078125 C-187.06202642 290.06830961 -182.23783031 290.50988437 -177.3125 290.8125 C-176.8175 292.2975 -176.8175 292.2975 -176.3125 293.8125 C-175.59449219 293.92980469 -174.87648438 294.04710937 -174.13671875 294.16796875 C-171.20614868 294.83677105 -168.8221923 295.8070074 -166.125 297.125 C-164.83529297 297.73794922 -164.83529297 297.73794922 -163.51953125 298.36328125 C-161.08676302 299.96072729 -160.33645498 301.12962353 -159.3125 303.8125 C-163.16970239 303.41070808 -166.4688283 302.84513842 -170.0625 301.375 C-174.16235606 299.73186703 -178.24745988 299.01019679 -182.6015625 298.33984375 C-185.3125 297.8125 -185.3125 297.8125 -188.015625 296.859375 C-202.75636598 292.17866578 -219.03494485 290.71397685 -233.1328125 297.55859375 C-235.42476516 298.75121317 -235.42476516 298.75121317 -237.3125 300.8125 C-237.89600505 303.26959375 -237.89600505 303.26959375 -237.3125 305.8125 C-232.94617531 309.44820463 -228.66152789 309.312706 -223.25 309.25 C-221.93467285 309.24516602 -221.93467285 309.24516602 -220.59277344 309.24023438 C-213.34824009 309.09032965 -206.60066103 307.83083844 -199.55249023 306.24926758 C-182.73639237 302.59070855 -167.3351955 304.9638151 -151.87890625 312.15625 C-148.4635262 313.81033869 -148.4635262 313.81033869 -145.40234375 314.84375 C-144.71269531 315.1634375 -144.02304688 315.483125 -143.3125 315.8125 C-142.9825 316.8025 -142.6525 317.7925 -142.3125 318.8125 C-143.16521484 319.08513672 -143.16521484 319.08513672 -144.03515625 319.36328125 C-144.80730469 319.61464844 -145.57945312 319.86601562 -146.375 320.125 C-147.12910156 320.36863281 -147.88320312 320.61226563 -148.66015625 320.86328125 C-151.45485413 321.82048888 -151.45485413 321.82048888 -154.609375 323.32421875 C-158.60697782 324.93085026 -162.26771719 325.67507014 -166.5 326.3125 C-172.60096602 327.30249058 -178.53921401 328.51557401 -184.50390625 330.1640625 C-192.90728217 332.10420214 -201.28960889 331.99569223 -209.875 332 C-211.16341797 332.01224609 -212.45183594 332.02449219 -213.77929688 332.03710938 C-220.00902717 332.04674795 -225.46196743 332.02728777 -231.3125 329.8125 C-232.50359375 329.42191406 -232.50359375 329.42191406 -233.71875 329.0234375 C-241.02532093 326.10626179 -245.02243571 321.24759644 -249.3125 314.8125 C-249.3125 313.4925 -249.3125 312.1725 -249.3125 310.8125 C-249.9725 310.8125 -250.6325 310.8125 -251.3125 310.8125 C-251.43367188 312.05386719 -251.55484375 313.29523438 -251.6796875 314.57421875 C-251.84857548 316.21618526 -252.0178676 317.85811023 -252.1875 319.5 C-252.26613281 320.31662109 -252.34476563 321.13324219 -252.42578125 321.97460938 C-252.88208299 326.30947594 -253.62614779 329.77430027 -255.3125 333.8125 C-256.05446205 337.313806 -256.55175307 340.8595975 -257.08007812 344.3984375 C-257.86734295 349.26991046 -259.32981988 353.26399856 -261.3125 357.8125 C-261.93941697 360.93633207 -261.93941697 360.93633207 -262.25 364.0625 C-262.98883389 369.55639301 -264.46235777 374.22075132 -266.4921875 379.35546875 C-267.60700339 382.69460777 -267.62209533 385.32955254 -267.3125 388.8125 C-244.33469388 399.74811311 -216.22999392 399.45996172 -191.3125 400.8125 C-190.8175 402.2975 -190.8175 402.2975 -190.3125 403.8125 C-189.3225 404.1425 -188.3325 404.4725 -187.3125 404.8125 C-186.125 407.375 -186.125 407.375 -185.3125 409.8125 C-173.34363906 410.25397438 -166.84210264 408.16970083 -157.3125 400.8125 C-156.48492187 400.17828125 -155.65734375 399.5440625 -154.8046875 398.890625 C-149.45355019 394.69694372 -144.4048879 390.24245529 -139.44140625 385.59765625 C-137.3125 383.8125 -137.3125 383.8125 -134.3125 382.8125 C-134.3125 382.1525 -134.3125 381.4925 -134.3125 380.8125 C-133.6525 380.8125 -132.9925 380.8125 -132.3125 380.8125 C-131.9721875 379.94625 -131.9721875 379.94625 -131.625 379.0625 C-130.3125 376.8125 -130.3125 376.8125 -127.9375 374.9375 C-125.15766675 372.90274811 -125.15766675 372.90274811 -123.3125 369.8125 C-121.3125 366.8125 -121.3125 366.8125 -118.8125 364.9375 C-115.88925192 362.45273914 -114.91377398 360.19196042 -113.34765625 356.76171875 C-111.8486597 353.93907996 -109.58788262 352.02953948 -107.3125 349.8125 C-106.77625 348.74 -106.24 347.6675 -105.6875 346.5625 C-104.3125 343.8125 -104.3125 343.8125 -101.3125 342.8125 C-100.89750237 341.25625889 -100.4892129 339.69800661 -100.109375 338.1328125 C-98.35509309 333.02475634 -95.38954699 328.23212645 -92.3125 323.8125 C-91.6525 323.8125 -90.9925 323.8125 -90.3125 323.8125 C-90.23 323.11125 -90.1475 322.41 -90.0625 321.6875 C-89.3125 318.8125 -89.3125 318.8125 -87.5 316.125 C-85.16809282 312.59382627 -83.80804958 309.17461252 -82.30859375 305.2421875 C-81.22469284 302.5983194 -79.81060708 300.23718122 -78.359375 297.78125 C-75.82735371 293.01953833 -74.13883947 287.87492834 -72.3125 282.8125 C-71.80662354 281.42732178 -71.80662354 281.42732178 -71.29052734 280.01416016 C-66.24565904 266.13473778 -61.83664909 252.36949682 -58.85571289 237.89526367 C-58.3125 235.8125 -58.3125 235.8125 -57.3371582 233.40283203 C-56.26141174 230.68334908 -55.5846439 228.05182267 -54.9453125 225.19921875 C-54.69910156 224.11447266 -54.45289063 223.02972656 -54.19921875 221.91210938 C-53.82216797 220.22311523 -53.82216797 220.22311523 -53.4375 218.5 C-52.94171726 216.29520957 -52.44429794 214.09078656 -51.9453125 211.88671875 C-51.6862915 210.73502197 -51.42727051 209.5833252 -51.16040039 208.39672852 C-50.59266633 205.9968138 -49.98456009 203.6061115 -49.33764648 201.22631836 C-46.11339072 189.2889411 -44.60862826 177.25985892 -43.125 165 C-42.73707079 161.8568343 -42.34635709 158.71404542 -41.95256042 155.5716095 C-41.7104358 153.63336612 -41.4720827 151.69464687 -41.23799133 149.75541687 C-41.07728401 148.45178947 -41.07728401 148.45178947 -40.91333008 147.12182617 C-40.77487419 145.97843025 -40.77487419 145.97843025 -40.63362122 144.81193542 C-40.3125 142.8125 -40.3125 142.8125 -39.3125 139.8125 C-39.01279923 134.56918331 -39.01696002 129.31364105 -39 124.0625 C-38.99738159 123.29773346 -38.99476318 122.53296692 -38.99206543 121.74502563 C-38.98549013 103.8176995 -41.2785532 86.78297539 -47.3125 69.8125 C-52.92763104 54.01994395 -56.49025955 38.15780361 -56.5 21.375 C-56.51224609 20.26833984 -56.52449219 19.16167969 -56.53710938 18.02148438 C-56.5475469 12.20082485 -56.2702269 7.30313636 -54.3125 1.8125 C-54.1475 1.049375 -53.9825 0.28625 -53.8125 -0.5 C-53.3125 -2.1875 -53.3125 -2.1875 -51.3125 -4.1875 C-50.9825 -5.5075 -50.6525 -6.8275 -50.3125 -8.1875 C-56.2525 -8.1875 -62.1925 -8.1875 -68.3125 -8.1875 C-68.3125 -8.5175 -68.3125 -8.8475 -68.3125 -9.1875 C-45.78355795 -11.27627608 -19.71513513 -13.01942886 0 0 Z " fill="#727271" transform="translate(380.3125,25.1875)"/>
<path d="M0 0 C11.11836467 0.18092014 19.95944532 2.01095445 29.3125 8.1875 C42.42414775 21.90899183 46.57888853 39.56026062 47.56628418 58.04354858 C47.60719287 58.77821708 47.64810157 59.51288558 47.69024992 60.26981676 C48.07809556 67.69572489 48.1664362 75.11814479 48.18945312 82.55322266 C48.19742884 84.01906047 48.20581917 85.48489607 48.21458435 86.95072937 C48.23241513 90.06831826 48.24750785 93.18590304 48.26036072 96.30351639 C48.28088045 101.24895577 48.30848516 106.19434135 48.33703613 111.13973999 C48.40172483 122.52466707 48.45748311 133.90963432 48.51302338 145.29460907 C48.56410292 155.74845968 48.61715102 166.20229058 48.67754889 176.65609205 C48.70560409 181.55675458 48.72930022 186.45741154 48.74947357 191.35811257 C48.76301297 194.42134504 48.78041304 197.48454736 48.79878426 200.54775429 C48.8064327 201.95083529 48.81254762 203.35392578 48.81687737 204.75702095 C48.84361607 213.10707072 49.14669457 221.37815969 49.76959991 229.70102501 C50.86428942 245.37529574 49.25526749 260.5148476 38.90625 272.96875 C31.00836133 281.38453301 21.00005586 285.31328559 10 288 C10.00151888 287.42114611 10.00303776 286.84229221 10.00460267 286.24589729 C10.09412748 251.93341922 10.16275253 217.62096773 10.20426132 183.30839831 C10.20926411 179.18785779 10.2144414 175.06731751 10.21972656 170.94677734 C10.2207758 170.12645676 10.22182505 169.30613619 10.22290608 168.46095741 C10.24030827 155.18084652 10.27184493 141.90080495 10.30861118 128.62073517 C10.3460258 114.99275131 10.36823695 101.36480374 10.37635398 87.73677063 C10.38184068 79.32845685 10.39916588 70.92033897 10.43166587 62.5120855 C10.45282019 56.74514141 10.45919798 50.9782985 10.45400551 45.21131843 C10.45144507 41.88462911 10.45754274 38.55855762 10.4768219 35.2318821 C10.49671914 31.62168152 10.49193904 28.01231954 10.48101807 24.40209961 C10.49266943 23.35539156 10.5043208 22.30868351 10.51632524 21.23025703 C10.4659534 15.070786 9.74379658 10.05506436 6 5 C4.07686644 3.38291564 2.19864458 2.24922988 0 1 C0 0.67 0 0.34 0 0 Z " fill="#5D5D5D" transform="translate(351,17)"/>
<path d="M0 0 C0.33 0 0.66 0 1 0 C1.22036864 3.85645121 0.60355101 6.49223216 -1 10 C-0.37738281 9.66645508 0.24523437 9.33291016 0.88671875 8.98925781 C5.27375719 7.59525846 9.25101804 7.93347317 13.8125 8.171875 C14.77663818 8.21435364 15.74077637 8.25683228 16.73413086 8.30059814 C18.78198148 8.39307879 20.82959548 8.49093229 22.87695312 8.59375 C25.93316528 8.74665617 28.98973583 8.88270591 32.046875 9.015625 C68.95131521 10.69133907 68.95131521 10.69133907 82.5625 14.75 C83.47741211 15.01240479 84.39232422 15.27480957 85.33496094 15.54516602 C97.7510615 19.24285114 112.84548826 25.55278122 120 37 C120.34799118 40.47991184 120.57455739 42.85088521 119 46 C106.09011483 46.34632379 93.40491062 46.07797023 80.5625 44.625 C79.44512451 44.49891357 78.32774902 44.37282715 77.17651367 44.24291992 C71.70835355 43.58142564 66.3891037 42.71759911 61.03100586 41.44628906 C57.88091537 40.75409464 54.70268355 40.4217754 51.5 40.0625 C46.37633643 39.42140096 41.80045802 38.55765342 37.02734375 36.5859375 C34.32641925 35.80532348 31.79820167 35.96433595 29 36 C28.80365967 37.24910156 28.60731934 38.49820313 28.4050293 39.78515625 C27.66373528 44.49711846 26.91933233 49.20858546 26.17407227 53.91992188 C25.85423662 55.94453127 25.53520235 57.96926745 25.21704102 59.99414062 C23.32461888 72.03411768 21.34051018 84.03811581 19 96 C19.91120605 95.20311768 20.82241211 94.40623535 21.76123047 93.58520508 C24.05225688 91.68040904 25.87924185 90.33517328 28.8203125 89.63671875 C29.51012207 89.47179932 30.19993164 89.30687988 30.91064453 89.13696289 C31.64138184 88.98864014 32.37211914 88.84031738 33.125 88.6875 C33.90343262 88.52435303 34.68186523 88.36120605 35.48388672 88.19311523 C48.93158958 85.63604457 62.10295149 86.40153626 75.41015625 89.265625 C80.25047358 90.25580961 85.07466969 90.69738437 90 91 C90.33 91.99 90.66 92.98 91 94 C91.71800781 94.11730469 92.43601562 94.23460937 93.17578125 94.35546875 C96.10635132 95.02427105 98.4903077 95.9945074 101.1875 97.3125 C102.47720703 97.92544922 102.47720703 97.92544922 103.79296875 98.55078125 C106.22573698 100.14822729 106.97604502 101.31712353 108 104 C104.14279761 103.59820808 100.8436717 103.03263842 97.25 101.5625 C93.15014394 99.91936703 89.06504012 99.19769679 84.7109375 98.52734375 C82 98 82 98 79.296875 97.046875 C64.55613402 92.36616578 48.27755515 90.90147685 34.1796875 97.74609375 C31.88773484 98.93871317 31.88773484 98.93871317 30 101 C29.41649495 103.45709375 29.41649495 103.45709375 30 106 C34.36632469 109.63570463 38.65097211 109.500206 44.0625 109.4375 C44.93938477 109.43427734 45.81626953 109.43105469 46.71972656 109.42773438 C53.96425991 109.27782965 60.71183897 108.01833844 67.76000977 106.43676758 C84.57610763 102.77820855 99.9773045 105.1513151 115.43359375 112.34375 C118.8489738 113.99783869 118.8489738 113.99783869 121.91015625 115.03125 C122.59980469 115.3509375 123.28945312 115.670625 124 116 C124.33 116.99 124.66 117.98 125 119 C124.43152344 119.18175781 123.86304688 119.36351562 123.27734375 119.55078125 C122.50519531 119.80214844 121.73304688 120.05351562 120.9375 120.3125 C120.18339844 120.55613281 119.42929688 120.79976563 118.65234375 121.05078125 C115.85764587 122.00798888 115.85764587 122.00798888 112.703125 123.51171875 C108.70552218 125.11835026 105.04478281 125.86257014 100.8125 126.5 C94.71153398 127.48999058 88.77328599 128.70307401 82.80859375 130.3515625 C74.40521783 132.29170214 66.02289111 132.18319223 57.4375 132.1875 C56.14908203 132.19974609 54.86066406 132.21199219 53.53320312 132.22460938 C47.30347283 132.23424795 41.85053257 132.21478777 36 130 C35.2059375 129.73960937 34.411875 129.47921875 33.59375 129.2109375 C26.28717907 126.29376179 22.29006429 121.43509644 18 115 C18 113.68 18 112.36 18 111 C17.34 111 16.68 111 16 111 C15.87882812 112.24136719 15.75765625 113.48273438 15.6328125 114.76171875 C15.46392452 116.40368526 15.2946324 118.04561023 15.125 119.6875 C15.00705078 120.91243164 15.00705078 120.91243164 14.88671875 122.16210938 C14.43041701 126.49697594 13.68635221 129.96180027 12 134 C11.25803795 137.501306 10.76074693 141.0470975 10.23242188 144.5859375 C9.44515705 149.45741046 7.98268012 153.45149856 6 158 C5.37308303 161.12383207 5.37308303 161.12383207 5.0625 164.25 C4.32366611 169.74389301 2.85014223 174.40825132 0.8203125 179.54296875 C-0.29450339 182.88210777 -0.30959533 185.51705254 0 189 C22.97780612 199.93561311 51.08250608 199.64746172 76 201 C76.33 201.99 76.66 202.98 77 204 C77.99 204.33 78.98 204.66 80 205 C81.1875 207.5625 81.1875 207.5625 82 210 C85.3 210.33 88.6 210.66 92 211 C92 211.33 92 211.66 92 212 C81.72929149 213.04162883 71.61359795 213.09527213 61.3125 212.8125 C60.50451965 212.79110962 59.69653931 212.76971924 58.86407471 212.74768066 C40.6501895 212.22655357 23.01978993 209.93630144 5.3125 205.5625 C4.18980713 205.29131348 4.18980713 205.29131348 3.04443359 205.01464844 C-2.7982747 203.4337912 -7.77511794 200.84383421 -11.55859375 196.0078125 C-11.84863281 195.38648438 -12.13867188 194.76515625 -12.4375 194.125 C-12.74558594 193.50882813 -13.05367188 192.89265625 -13.37109375 192.2578125 C-14.95884306 186.55769388 -13.75835895 181.34564848 -12.09375 175.8125 C-11.67890943 174.39953704 -11.26479996 172.98635928 -10.85131836 171.57299805 C-10.52114212 170.45989761 -10.52114212 170.45989761 -10.18429565 169.3243103 C0.16054649 134.18654049 5.81476307 98.18628858 11.53565979 62.06117249 C12.74209722 54.48047638 14.06455152 46.92851463 15.4909668 39.38623047 C15.97585691 36.16060656 16.26060537 33.25208221 16 30 C13.81385777 27.78160297 13.81385777 27.78160297 10.875 26.0625 C5.28280557 22.30074034 0.2107372 18.63221159 -2 12 C-2.25343766 7.43812214 -2.00169177 4.12848928 0 0 Z " fill="#9E9E9D" transform="translate(113,225)"/>
<path d="M0 0 C1.08867371 0.00031723 1.08867371 0.00031723 2.19934082 0.00064087 C13.20600328 0.03262817 23.26981918 0.74171077 33.75 4.375 C34.81476563 4.71402344 35.87953125 5.05304688 36.9765625 5.40234375 C51.18251489 10.35503931 65.02778741 17.95609936 76.75 27.375 C77.64976562 28.06851563 78.54953125 28.76203125 79.4765625 29.4765625 C82.46518117 31.97221314 82.68327344 32.78558203 83.125 36.6875 C82.74289113 40.44490387 82.2664331 41.57558654 79.56982422 44.08325195 C75.50945656 46.96538306 70.74702776 48.54613981 66.125 50.3125 C65.01503662 50.7448999 63.90507324 51.1772998 62.76147461 51.62280273 C35.83350987 61.97881935 35.83350987 61.97881935 23.75 62.375 C23.481875 61.64796875 23.21375 60.9209375 22.9375 60.171875 C17.94692189 47.36710222 10.90513924 35.3734135 -1.25 28.375 C-1.25 27.715 -1.25 27.055 -1.25 26.375 C-2.83298026 25.8946682 -4.41639978 25.41578388 -6 24.9375 C-6.88171875 24.67066406 -7.7634375 24.40382813 -8.671875 24.12890625 C-17.28091238 21.61141502 -26.04198725 21.07640711 -34.25 25.375 C-34.91 26.365 -35.57 27.355 -36.25 28.375 C-36.91 28.375 -37.57 28.375 -38.25 28.375 C-38.31703125 29.03242187 -38.3840625 29.68984375 -38.453125 30.3671875 C-39.56544462 34.5656488 -41.70262517 37.84089399 -44 41.5 C-44.72558105 42.66088135 -44.72558105 42.66088135 -45.46582031 43.84521484 C-46.50577972 45.49650621 -47.55120919 47.14436293 -48.6015625 48.7890625 C-49.72007129 50.54369004 -50.82916069 52.30435087 -51.9296875 54.0703125 C-53.59373145 56.73124914 -55.2915399 59.36741377 -57 62 C-57.51788086 62.83547363 -58.03576172 63.67094727 -58.56933594 64.53173828 C-60.01754987 66.71324253 -61.32352308 68.60073567 -63.25 70.375 C-67.140625 70.8984375 -67.140625 70.8984375 -70.25 70.375 C-70.311875 70.973125 -70.37375 71.57125 -70.4375 72.1875 C-71.5736757 75.24643458 -73.42330142 75.92541099 -76.25 77.375 C-75.09826645 74.90699953 -74.20216435 73.32716435 -72.25 71.375 C-72.57689466 67.88812358 -74.20792724 65.97370732 -76.4375 63.375 C-82.58982887 55.72581586 -87.44353043 47.08331266 -87.3125 37.125 C-87.30347656 36.23296875 -87.29445312 35.3409375 -87.28515625 34.421875 C-87.27355469 33.74640625 -87.26195312 33.0709375 -87.25 32.375 C-86.59 33.365 -85.93 34.355 -85.25 35.375 C-84.940625 34.67375 -84.63125 33.9725 -84.3125 33.25 C-81.40398 29.19569939 -77.59377118 26.77355297 -73.25 24.375 C-72.59 24.375 -71.93 24.375 -71.25 24.375 C-70.528125 23.653125 -69.80625 22.93125 -69.0625 22.1875 C-62.54838063 15.67338063 -55.7210374 12.68370936 -47.25 9.375 C-45.80904485 8.77678529 -44.36898899 8.17640127 -42.9296875 7.57421875 C-41.39093851 6.94454582 -39.85187648 6.31563732 -38.3125 5.6875 C-37.61020264 5.3898877 -36.90790527 5.09227539 -36.18432617 4.78564453 C-24.61646291 0.15744796 -12.29102821 -0.03319147 0 0 Z " fill="#70706F" transform="translate(251.25,81.625)"/>
<path d="M0 0 C0.33 0 0.66 0 1 0 C1.22036864 3.85645121 0.60355101 6.49223216 -1 10 C-0.37738281 9.66645508 0.24523437 9.33291016 0.88671875 8.98925781 C5.27375719 7.59525846 9.25101804 7.93347317 13.8125 8.171875 C14.77663818 8.21435364 15.74077637 8.25683228 16.73413086 8.30059814 C18.78198148 8.39307879 20.82959548 8.49093229 22.87695312 8.59375 C25.93316528 8.74665617 28.98973583 8.88270591 32.046875 9.015625 C68.95131521 10.69133907 68.95131521 10.69133907 82.5625 14.75 C83.47741211 15.01240479 84.39232422 15.27480957 85.33496094 15.54516602 C97.7510615 19.24285114 112.84548826 25.55278122 120 37 C120.34799118 40.47991184 120.57455739 42.85088521 119 46 C106.09011483 46.34632379 93.40491062 46.07797023 80.5625 44.625 C79.44512451 44.49891357 78.32774902 44.37282715 77.17651367 44.24291992 C71.70835355 43.58142564 66.3891037 42.71759911 61.03100586 41.44628906 C57.88091537 40.75409464 54.70268355 40.4217754 51.5 40.0625 C46.41797559 39.41901336 41.89524449 38.5198661 37.11328125 36.71875 C34.7184938 35.90425667 32.36353345 35.44771216 29.875 35 C25.55392157 34.20330116 21.95824677 32.89307454 18 31 C17.67 31.99 17.34 32.98 17 34 C16.63455078 32.84951172 16.63455078 32.84951172 16.26171875 31.67578125 C14.8061107 28.58881063 13.73214771 27.85084491 10.8125 26.1875 C5.2625795 22.72664489 0.11411894 18.34235682 -2 12 C-2.25343766 7.43812214 -2.00169177 4.12848928 0 0 Z " fill="#717171" transform="translate(113,225)"/>
<path d="M0 0 C4.84031733 0.99018461 9.66451344 1.43175937 14.58984375 1.734375 C15.08484375 3.219375 15.08484375 3.219375 15.58984375 4.734375 C16.30785156 4.85167969 17.02585937 4.96898437 17.765625 5.08984375 C20.69619507 5.75864605 23.08015145 6.7288824 25.77734375 8.046875 C27.06705078 8.65982422 27.06705078 8.65982422 28.3828125 9.28515625 C30.81558073 10.88260229 31.56588877 12.05149853 32.58984375 14.734375 C28.73264136 14.33258308 25.43351545 13.76701342 21.83984375 12.296875 C17.73998769 10.65374203 13.65488387 9.93207179 9.30078125 9.26171875 C6.58984375 8.734375 6.58984375 8.734375 3.88671875 7.78125 C-10.85402223 3.10054078 -27.1326011 1.63585185 -41.23046875 8.48046875 C-43.52242141 9.67308817 -43.52242141 9.67308817 -45.41015625 11.734375 C-45.9936613 14.19146875 -45.9936613 14.19146875 -45.41015625 16.734375 C-41.04383156 20.37007963 -36.75918414 20.234581 -31.34765625 20.171875 C-30.47077148 20.16865234 -29.59388672 20.16542969 -28.69042969 20.16210938 C-21.44589634 20.01220465 -14.69831728 18.75271344 -7.65014648 17.17114258 C9.16595138 13.51258355 24.56714825 15.8856901 40.0234375 23.078125 C43.43881755 24.73221369 43.43881755 24.73221369 46.5 25.765625 C47.53447266 26.24515625 47.53447266 26.24515625 48.58984375 26.734375 C49.08484375 28.219375 49.08484375 28.219375 49.58984375 29.734375 C49.02136719 29.91613281 48.45289063 30.09789062 47.8671875 30.28515625 C47.09503906 30.53652344 46.32289063 30.78789062 45.52734375 31.046875 C44.77324219 31.29050781 44.01914063 31.53414063 43.2421875 31.78515625 C40.44748962 32.74236388 40.44748962 32.74236388 37.29296875 34.24609375 C33.29536593 35.85272526 29.63462656 36.59694514 25.40234375 37.234375 C19.30137773 38.22436558 13.36312974 39.43744901 7.3984375 41.0859375 C-1.00493842 43.02607714 -9.38726514 42.91756723 -17.97265625 42.921875 C-19.26107422 42.93412109 -20.54949219 42.94636719 -21.87695312 42.95898438 C-28.10668342 42.96862295 -33.55962368 42.94916277 -39.41015625 40.734375 C-40.60125 40.34378906 -40.60125 40.34378906 -41.81640625 39.9453125 C-49.12297718 37.02813679 -53.12009196 32.16947144 -57.41015625 25.734375 C-57.9296875 22.9921875 -57.9296875 22.9921875 -58.22265625 19.859375 C-58.33222656 18.83070313 -58.44179687 17.80203125 -58.5546875 16.7421875 C-58.38391324 13.18823672 -57.46594648 11.5981386 -55.41015625 8.734375 C-54.99378906 8.11433594 -54.57742187 7.49429687 -54.1484375 6.85546875 C-42.2722702 -7.16816989 -15.84862512 -3.41107465 0 0 Z " fill="#757575" transform="translate(188.41015625,314.265625)"/>
<path d="M0 0 C-0.75 4.75 -0.75 4.75 -3 7 C-3.39764263 8.98821313 -3.73775349 10.98944339 -4 13 C-4.66 13 -5.32 13 -6 13 C-6 12.34 -6 11.68 -6 11 C-22.67923074 12.23164941 -38.76367768 14.27445284 -55.0625 18 C-55.74103027 18.15388184 -56.41956055 18.30776367 -57.11865234 18.46630859 C-61.28070823 19.45727428 -65.19486933 20.77842806 -69.18139648 22.32666016 C-71.42150751 23.1560636 -73.66068568 23.71232678 -76 24.1875 C-76.763125 24.34605469 -77.52625 24.50460938 -78.3125 24.66796875 C-78.869375 24.77753906 -79.42625 24.88710938 -80 25 C-80 25.66 -80 26.32 -80 27 C-82.31 27.33 -84.62 27.66 -87 28 C-87.495 29.485 -87.495 29.485 -88 31 C-90.31 31.33 -92.62 31.66 -95 32 C-95 32.66 -95 33.32 -95 34 C-95.54269531 34.25394531 -96.08539063 34.50789063 -96.64453125 34.76953125 C-97.71767578 35.28580078 -97.71767578 35.28580078 -98.8125 35.8125 C-99.52019531 36.14894531 -100.22789062 36.48539063 -100.95703125 36.83203125 C-103.01573105 38.00899347 -104.35171499 39.31874929 -106 41 C-107.0209375 41.2475 -107.0209375 41.2475 -108.0625 41.5 C-110.39687193 41.87267251 -110.39687193 41.87267251 -112 45 C-113.32 45 -114.64 45 -116 45 C-116 45.66 -116 46.32 -116 47 C-117.875 49.125 -117.875 49.125 -120 51 C-120.66 51 -121.32 51 -122 51 C-122 51.66 -122 52.32 -122 53 C-123.6796875 54.62109375 -123.6796875 54.62109375 -125.875 56.4375 C-128.46193722 58.58400884 -130.11184374 60.16776562 -132 63 C-132.66 63 -133.32 63 -134 63 C-134.33 64.32 -134.66 65.64 -135 67 C-135.66 67 -136.32 67 -137 67 C-137.226875 67.86625 -137.45375 68.7325 -137.6875 69.625 C-138.82285297 72.54447906 -139.59272003 73.91599073 -141.5625 76.1875 C-144.14902427 78.80981981 -144.14902427 78.80981981 -145 82 C-143.515 82.495 -143.515 82.495 -142 83 C-142.94875 83.598125 -143.8975 84.19625 -144.875 84.8125 C-148.13964197 86.81562526 -148.13964197 86.81562526 -150 90 C-151.65438613 90.69658363 -153.32254318 91.36096883 -155 92 C-156.33790641 92.99387334 -157.67218122 93.9926892 -159 95 C-159.66 95 -160.32 95 -161 95 C-161.28875 95.804375 -161.5775 96.60875 -161.875 97.4375 C-163 100 -163 100 -165 101 C-166.61943465 86.74897508 -153.86118416 68.66896009 -145.39453125 57.89453125 C-126.73303261 35.33634122 -103.63777046 20.63877578 -76 11 C-75.21898926 10.72462402 -74.43797852 10.44924805 -73.63330078 10.16552734 C-49.54655284 1.85612522 -25.36267272 -0.94658574 0 0 Z " fill="#AFAFAF" transform="translate(330,17)"/>
<path d="M0 0 C-0.45902285 4.22301018 -1.26361106 8.0126623 -2.5625 12.0625 C-3.74898601 15.83506475 -4.31503834 19.0095143 -4 23 C18.97780612 33.93561311 47.08250608 33.64746172 72 35 C72.33 35.99 72.66 36.98 73 38 C74.485 38.495 74.485 38.495 76 39 C77.1875 41.5625 77.1875 41.5625 78 44 C81.3 44.33 84.6 44.66 88 45 C88 45.33 88 45.66 88 46 C77.72929149 47.04162883 67.61359795 47.09527213 57.3125 46.8125 C56.50451965 46.79110962 55.69653931 46.76971924 54.86407471 46.74768066 C36.6501895 46.22655357 19.01978993 43.93630144 1.3125 39.5625 C0.56403809 39.38170898 -0.18442383 39.20091797 -0.95556641 39.01464844 C-6.7982747 37.4337912 -11.77511794 34.84383421 -15.55859375 30.0078125 C-19.42554092 21.72395234 -17.83575784 15.38911694 -15 7 C-14.34 7.66 -13.68 8.32 -13 9 C-11.85050412 8.21366078 -10.70551011 7.42073742 -9.5625 6.625 C-8.92441406 6.18414062 -8.28632812 5.74328125 -7.62890625 5.2890625 C-5.86259072 4.07839147 -5.86259072 4.07839147 -5 2 C-1.44444444 0 -1.44444444 0 0 0 Z " fill="#89898A" transform="translate(117,391)"/>
<path d="M0 0 C7.20682011 -0.31388758 13.58079974 0.49559773 20.5625 2.25 C21.44357422 2.45496094 22.32464844 2.65992188 23.23242188 2.87109375 C29.14783845 4.31174871 34.52636268 6.3403512 40 9 C40 9.66 40 10.32 40 11 C41.32 11.33 42.64 11.66 44 12 C43.67 13.65 43.34 15.3 43 17 C37.70014787 19.09204689 32.63336182 19.65051522 27 20 C26.15824219 20.05414063 25.31648438 20.10828125 24.44921875 20.1640625 C18.63463054 20.36300642 13.22390753 19.7357964 8 17 C7.34 16.01 6.68 15.02 6 14 C5.01 13.67 4.02 13.34 3 13 C0.14941571 8.56575777 -0.3129725 5.2162083 0 0 Z " fill="#525252" transform="translate(168,245)"/>
<path d="M0 0 C1.98 0 3.96 0 6 0 C4.68 0.33 3.36 0.66 2 1 C2.33 2.32 2.66 3.64 3 5 C2.01 5.33 1.02 5.66 0 6 C-0.25136719 6.69351563 -0.50273437 7.38703125 -0.76171875 8.1015625 C-2.57067089 12.33576593 -5.61945307 15.11317976 -8.8125 18.375 C-12.40387534 22.06769941 -15.85527815 25.64750789 -18.76171875 29.9140625 C-21 33 -21 33 -24 34 C-21.88967862 28.29800683 -18.65007809 23.54977996 -15.3125 18.5 C-14.71244141 17.56285156 -14.11238281 16.62570313 -13.49414062 15.66015625 C-9.82632417 10.10524625 -6.54955893 6.62990018 -1 3 C-0.67 2.01 -0.34 1.02 0 0 Z " fill="#A1A1A1" transform="translate(181,152)"/>
<path d="M0 0 C3.86608397 3.63177585 7.06597911 7.56103503 10.28515625 11.7734375 C12.44891331 14.58287149 14.70969261 17.29327309 17 20 C11.34605369 20.34615998 7.96993194 19.43425238 3 17 C2.67 17.99 2.34 18.98 2 20 C1.566875 18.824375 1.566875 18.824375 1.125 17.625 C0.15087746 14.90328368 0.15087746 14.90328368 -2 13 C-1.34 13 -0.68 13 0 13 C-0.33 12.34 -0.66 11.68 -1 11 C-1.09499503 9.50243129 -1.12987198 8.00057068 -1.125 6.5 C-1.12757812 5.7059375 -1.13015625 4.911875 -1.1328125 4.09375 C-1 2 -1 2 0 0 Z " fill="#525252" transform="translate(128,239)"/>
<path d="M0 0 C0 0.66 0 1.32 0 2 C-0.98742187 2.06058594 -1.97484375 2.12117188 -2.9921875 2.18359375 C-4.27351563 2.26738281 -5.55484375 2.35117187 -6.875 2.4375 C-8.15117187 2.51871094 -9.42734375 2.59992187 -10.7421875 2.68359375 C-13.88300152 2.79206027 -13.88300152 2.79206027 -16 4 C-16 3.34 -16 2.68 -16 2 C-21.94 2 -27.88 2 -34 2 C-34 1.67 -34 1.34 -34 1 C-22.64764338 -0.05253638 -11.39053108 -0.10313358 0 0 Z " fill="#616161" transform="translate(346,15)"/>
<path d="M0 0 C-3.75 2 -3.75 2 -6 2 C-6 2.66 -6 3.32 -6 4 C-6.5775 3.814375 -7.155 3.62875 -7.75 3.4375 C-10.28425126 2.94472892 -11.53912633 3.31137686 -14 4 C-16.85144351 4.71985058 -19.70589436 5.42591508 -22.5625 6.125 C-23.33013672 6.31964844 -24.09777344 6.51429687 -24.88867188 6.71484375 C-30.6594523 8.1135159 -30.6594523 8.1135159 -34 7 C-28.05200665 4.7970395 -22.05076175 3.21957186 -15.875 1.8125 C-14.7295874 1.54421387 -14.7295874 1.54421387 -13.56103516 1.27050781 C-8.92970204 0.24221355 -4.74302657 -0.1824241 0 0 Z " fill="#CBCACA" transform="translate(300,30)"/>
<path d="M0 0 C1.15089256 3.45267768 0.91927358 3.88787615 -0.625 7 C-2.49150645 10.55027801 -4.25762196 12.33672087 -8 14 C-6.6744419 10.37723685 -5.05653045 7.36494652 -2.875 4.1875 C-2.33617187 3.39730469 -1.79734375 2.60710937 -1.2421875 1.79296875 C-0.83226562 1.20128906 -0.42234375 0.60960937 0 0 Z " fill="#878787" transform="translate(165,172)"/>
<path d="M0 0 C0.66 0.33 1.32 0.66 2 1 C-1.41463415 7.70731707 -1.41463415 7.70731707 -4.125 9.0625 C-6 9 -6 9 -8 7 C-5.36 4.69 -2.72 2.38 0 0 Z " fill="#8A8A8A" transform="translate(209,51)"/>
<path d="M0 0 C0.66 0.33 1.32 0.66 2 1 C0.21427748 2.83947337 -1.57802449 4.67157741 -3.375 6.5 C-3.88289063 7.02464844 -4.39078125 7.54929688 -4.9140625 8.08984375 C-6.23832604 9.43153181 -7.61605865 10.71995815 -9 12 C-9.66 12 -10.32 12 -11 12 C-9.49650623 8.33213607 -7.36271208 6.31089607 -4.375 3.75 C-3.14910156 2.69039062 -3.14910156 2.69039062 -1.8984375 1.609375 C-1.27195312 1.07828125 -0.64546875 0.5471875 0 0 Z " fill="#787878" transform="translate(127,210)"/>
<path d="M0 0 C0.33 0.66 0.66 1.32 1 2 C-2.33562767 6.51290803 -4.33289301 8.68206814 -10 10 C-3.84965831 2.51708428 -3.84965831 2.51708428 0 0 Z " fill="#848483" transform="translate(156,186)"/>
</svg>
