<?xml version="1.0" encoding="UTF-8"?>
<svg version="1.1" xmlns="http://www.w3.org/2000/svg" width="500" height="500">
<path d="M0 0 C165 0 330 0 500 0 C500 165 500 330 500 500 C335 500 170 500 0 500 C0 335 0 170 0 0 Z " fill="#000000" transform="translate(0,0)"/>
<path d="M0 0 C2.65264433 0.00542211 5.30512408 -0.00000338 7.95776367 -0.00634766 C9.64070675 -0.00568794 11.32364974 -0.004409 13.0065918 -0.00244141 C13.80126358 -0.00446564 14.59593536 -0.00648987 15.41468811 -0.00857544 C20.9501928 0.01537834 20.9501928 0.01537834 22.06518555 1.13037109 C24.12739035 1.1847191 26.1900137 1.2233207 28.25268555 1.25537109 C40.75741005 2.07117371 51.19388684 8.42388691 59.47924805 17.71630859 C70.09118513 32.10427237 70.36339648 54.83270838 70.36816406 71.85693359 C70.37584369 73.49604198 70.38439349 75.13514648 70.39373779 76.77424622 C70.41187856 80.27608656 70.42400412 83.77787501 70.43127632 87.27975464 C70.44284607 92.81864089 70.46833402 98.35741214 70.49559021 103.89624023 C70.53707642 112.65174214 70.5695719 121.40724972 70.59806436 130.1628027 C70.64922846 145.8619585 70.71126462 161.5610662 70.78340477 177.26013947 C70.80828678 182.76571274 70.82773478 188.27127069 70.84278691 193.77687931 C70.8529927 197.1958023 70.86713747 200.61470117 70.88226318 204.03360558 C70.88841535 205.618267 70.89287654 207.20293603 70.89552116 208.78760719 C70.89933741 210.95065318 70.90915801 213.11359319 70.92042542 215.27661133 C70.92428033 216.48663315 70.92813524 217.69665497 70.93210697 218.94334412 C71.05151726 221.8030367 71.43674652 224.34728926 72.06518555 227.13037109 C73.0093066 240.06548066 73.1542232 253.97795342 68.06518555 266.13037109 C67.07518555 266.46037109 66.08518555 266.79037109 65.06518555 267.13037109 C64.81768555 267.83162109 64.57018555 268.53287109 64.31518555 269.25537109 C60.41947192 278.21551244 50.38871097 283.53891962 41.69018555 287.00537109 C38.06518555 288.13037109 38.06518555 288.13037109 34.06518555 288.13037109 C34.46071488 306.01752433 34.46071488 306.01752433 37.31518555 323.63037109 C38.13314282 327.44750505 38.58814242 331.25495057 39.00268555 335.13037109 C40.50663087 348.08538125 43.12787186 361.23014766 52.73706055 370.79443359 C55.43563237 373.50887937 55.17747834 377.48659989 55.37768555 381.13037109 C55.34571043 387.4294696 53.10540169 393.23742535 51.06518555 399.13037109 C50.40518555 399.13037109 49.74518555 399.13037109 49.06518555 399.13037109 C48.67459961 399.99662109 48.67459961 399.99662109 48.27612305 400.88037109 C46.17015999 404.79338633 43.04332664 407.86250134 40.06518555 411.13037109 C39.40518555 411.89349609 38.74518555 412.65662109 38.06518555 413.44287109 C35.89714094 415.27215873 33.73480268 416.1149719 31.13793945 417.19604492 C26.35073392 419.35395253 21.85159496 422.11730159 17.29760742 424.72216797 C16.52352539 425.15980469 15.74944336 425.59744141 14.9519043 426.04833984 C13.90329224 426.64811646 13.90329224 426.64811646 12.83349609 427.26000977 C11.06518555 428.13037109 11.06518555 428.13037109 9.06518555 428.13037109 C8.73518555 429.12037109 8.40518555 430.11037109 8.06518555 431.13037109 C5.9206543 432.22802734 5.9206543 432.22802734 3.25268555 433.19287109 C-0.48014978 434.56139223 -0.48014978 434.56139223 -4.0715332 436.25146484 C-5.93481445 437.13037109 -5.93481445 437.13037109 -8.93481445 437.13037109 C-8.93481445 437.79037109 -8.93481445 438.45037109 -8.93481445 439.13037109 C-10.20320971 439.63652407 -11.47464547 440.13506208 -12.74731445 440.63037109 C-13.80885742 441.04802734 -13.80885742 441.04802734 -14.8918457 441.47412109 C-16.93481445 442.13037109 -16.93481445 442.13037109 -19.93481445 442.13037109 C-19.93481445 442.79037109 -19.93481445 443.45037109 -19.93481445 444.13037109 C-20.74305664 444.39591797 -21.55129883 444.66146484 -22.3840332 444.93505859 C-23.98698242 445.46486328 -23.98698242 445.46486328 -25.62231445 446.00537109 C-26.67805664 446.35341797 -27.73379883 446.70146484 -28.8215332 447.06005859 C-30.78328183 447.7344866 -32.72820362 448.46238099 -34.6418457 449.26318359 C-36.93481445 450.13037109 -36.93481445 450.13037109 -39.93481445 450.13037109 C-39.93481445 450.79037109 -39.93481445 451.45037109 -39.93481445 452.13037109 C-49.94457459 455.57015121 -59.91936805 458.7931639 -70.1887207 461.36865234 C-72.82609113 461.85752224 -72.82609113 461.85752224 -73.93481445 463.13037109 C-75.29099995 463.40381368 -76.65855436 463.62139719 -78.02856445 463.81396484 C-78.89610352 463.93707031 -79.76364258 464.06017578 -80.6574707 464.18701172 C-81.57399414 464.31269531 -82.49051758 464.43837891 -83.43481445 464.56787109 C-84.71678711 464.7505957 -84.71678711 464.7505957 -86.0246582 464.93701172 C-88.99253006 465.35268608 -91.96320329 465.74232793 -94.93481445 466.13037109 C-96.8537854 466.39394409 -96.8537854 466.39394409 -98.81152344 466.6628418 C-108.47065934 467.94007704 -117.99002624 468.47456258 -127.73144531 468.44604492 C-130.02821025 468.44282782 -132.32374882 468.46668589 -134.62036133 468.49169922 C-151.01327774 468.56171572 -151.01327774 468.56171572 -156.93481445 463.38037109 C-159.11718931 458.47002766 -158.09081667 454.09547049 -156.32543945 449.23974609 C-155.62342946 447.44872486 -154.90943342 445.66236504 -154.18481445 443.88037109 C-153.44989265 442.01730545 -152.71551257 440.15402601 -151.98168945 438.29052734 C-151.6278418 437.40252441 -151.27399414 436.51452148 -150.90942383 435.59960938 C-149.15156662 431.14596013 -147.54042338 426.64086459 -145.93481445 422.13037109 C-146.94672852 422.17677734 -147.95864258 422.22318359 -149.0012207 422.27099609 C-168.49046038 422.8587132 -188.56191683 420.25109128 -207.49731445 415.63037109 C-208.6728186 415.34673706 -208.6728186 415.34673706 -209.87207031 415.05737305 C-215.93181645 413.44472589 -220.43246312 411.10714916 -224.30981445 406.00537109 C-225.93481445 403.13037109 -225.93481445 403.13037109 -225.93481445 401.13037109 C-226.59481445 401.13037109 -227.25481445 401.13037109 -227.93481445 401.13037109 C-228.55229616 391.61086142 -227.38109535 382.64697498 -222.8605957 374.09912109 C-221.69495768 371.62029593 -221.37980255 369.34057244 -220.99731445 366.63037109 C-220.36619741 362.5599108 -219.60660422 358.61383051 -218.55981445 354.63037109 C-215.12380234 341.31582414 -212.83063548 327.70286711 -210.30981445 314.19287109 C-210.10372559 313.09257568 -209.89763672 311.99228027 -209.68530273 310.85864258 C-208.46752402 304.27345234 -207.3840221 297.67930064 -206.38598633 291.05737305 C-205.82539909 287.42053302 -205.16926481 283.81077327 -204.49731445 280.19287109 C-203.06787577 272.36900945 -201.99527581 264.51017799 -201.02490234 256.61694336 C-200.41684465 251.86943258 -199.51925855 247.66609733 -197.93481445 243.13037109 C-197.93481445 241.81037109 -197.93481445 240.49037109 -197.93481445 239.13037109 C-200.17603854 237.37616796 -200.17603854 237.37616796 -203.05981445 235.88037109 C-209.03133501 232.31746643 -212.83045023 228.33909953 -215.93481445 222.13037109 C-216.87925582 215.13672302 -216.26232724 209.99218044 -211.96606445 204.31787109 C-208.03233437 200.08154639 -203.53368141 196.6116363 -198.93481445 193.13037109 C-193.27327259 188.79985398 -187.84555978 184.35457536 -182.5871582 179.53662109 C-181.1294798 178.2141912 -179.65357128 176.90821231 -178.10913086 175.68823242 C-172.16311948 170.87016138 -168.42779537 165.29490646 -164.43481445 158.81787109 C-160.11317559 151.88960163 -155.7427153 145.426043 -150.32348633 139.29760742 C-148.71240949 137.26279501 -148.71240949 137.26279501 -149.09765625 135.0324707 C-150.41219493 132.04571921 -152.33426675 129.50319605 -154.24731445 126.88037109 C-163.24432074 114.20793164 -163.24432074 114.20793164 -163.93481445 107.13037109 C-163.99797852 106.48583984 -164.06114258 105.84130859 -164.1262207 105.17724609 C-164.47823122 98.68208424 -162.69066072 93.93705563 -159.93481445 88.13037109 C-159.6610498 87.53804688 -159.38728516 86.94572266 -159.10522461 86.33544922 C-143.01778942 51.70168631 -113.98831773 26.91497945 -78.30981445 13.69287109 C-75.85836532 12.81648175 -73.39887898 11.971282 -70.93481445 11.13037109 C-70.08661133 10.81455078 -69.2384082 10.49873047 -68.36450195 10.17333984 C-63.55631493 8.42412485 -58.82985507 7.55993907 -53.77856445 6.79833984 C-47.59944516 5.72452948 -41.49467901 4.30071411 -35.38354492 2.89453125 C-23.53856854 0.2338057 -12.09093782 -0.02955386 0 0 Z " fill="#B5B5B4" transform="translate(327.934814453125,15.86962890625)"/>
<path d="M0 0 C5.39346988 -0.02464849 10.78690725 -0.04283531 16.18041992 -0.05493164 C18.01668875 -0.05997231 19.85295354 -0.06680477 21.68920898 -0.07543945 C24.32276401 -0.08751672 26.95626616 -0.09323081 29.58984375 -0.09765625 C30.41588608 -0.10281754 31.24192841 -0.10797882 32.09300232 -0.11329651 C34.06236368 -0.11349205 36.03161614 -0.06204152 38 0 C38.33 0.33 38.66 0.66 39 1 C41.0622048 1.054348 43.12482816 1.09294961 45.1875 1.125 C57.6922245 1.94080262 68.12870129 8.29351581 76.4140625 17.5859375 C87.02599958 31.97390127 87.29821093 54.70233729 87.30297852 71.7265625 C87.31065814 73.36567088 87.31920794 75.00477538 87.32855225 76.64387512 C87.34669301 80.14571547 87.35881857 83.64750392 87.36609077 87.14938354 C87.37766052 92.6882698 87.40314847 98.22704104 87.43040466 103.76586914 C87.47189087 112.52137104 87.50438635 121.27687862 87.53287882 130.0324316 C87.58404291 145.7315874 87.64607907 161.43069511 87.71821922 177.12976837 C87.74310123 182.63534164 87.76254923 188.1408996 87.77760136 193.64650822 C87.78780715 197.0654312 87.80195193 200.48433007 87.81707764 203.90323448 C87.8232298 205.48789591 87.82769099 207.07256494 87.83033562 208.6572361 C87.83415186 210.82028209 87.84397246 212.9832221 87.85523987 215.14624023 C87.85909478 216.35626205 87.8629497 217.56628387 87.86692142 218.81297302 C87.98633171 221.6726656 88.37156097 224.21691817 89 227 C89.94412105 239.93510957 90.08903766 253.84758232 85 266 C84.01 266.33 83.02 266.66 82 267 C81.7525 267.70125 81.505 268.4025 81.25 269.125 C77.35428637 278.08514135 67.32352543 283.40854853 58.625 286.875 C55 288 55 288 51 288 C51.39552934 305.88715324 51.39552934 305.88715324 54.25 323.5 C55.06795728 327.31713396 55.52295688 331.12457947 55.9375 335 C57.44144532 347.95501016 60.06268632 361.09977657 69.671875 370.6640625 C72.37044682 373.37850828 72.11229279 377.35622879 72.3125 381 C72.28052488 387.29909851 70.04021615 393.10705426 68 399 C67.34 399 66.68 399 66 399 C65.60941406 399.86625 65.60941406 399.86625 65.2109375 400.75 C63.10497444 404.66301524 59.9781411 407.73213024 57 411 C56.34 411.763125 55.68 412.52625 55 413.3125 C52.83195539 415.14178764 50.66961714 415.98460081 48.07275391 417.06567383 C43.28554837 419.22358143 38.78640941 421.98693049 34.23242188 424.59179688 C33.45833984 425.02943359 32.68425781 425.46707031 31.88671875 425.91796875 C30.83810669 426.51774536 30.83810669 426.51774536 29.76831055 427.12963867 C28 428 28 428 26 428 C25.67 428.99 25.34 429.98 25 431 C22.85546875 432.09765625 22.85546875 432.09765625 20.1875 433.0625 C16.45466467 434.43102114 16.45466467 434.43102114 12.86328125 436.12109375 C11 437 11 437 8 437 C8 437.66 8 438.32 8 439 C6.73160474 439.50615298 5.46016898 440.00469099 4.1875 440.5 C3.12595703 440.91765625 3.12595703 440.91765625 2.04296875 441.34375 C0 442 0 442 -3 442 C-3 442.66 -3 443.32 -3 444 C-3.80824219 444.26554687 -4.61648438 444.53109375 -5.44921875 444.8046875 C-7.05216797 445.33449219 -7.05216797 445.33449219 -8.6875 445.875 C-9.74324219 446.22304688 -10.79898438 446.57109375 -11.88671875 446.9296875 C-13.84846738 447.60411551 -15.79338917 448.3320099 -17.70703125 449.1328125 C-20 450 -20 450 -23 450 C-23 450.66 -23 451.32 -23 452 C-33.00976014 455.43978012 -42.98455359 458.66279281 -53.25390625 461.23828125 C-55.89127668 461.72715114 -55.89127668 461.72715114 -57 463 C-58.35618549 463.27344258 -59.72373991 463.4910261 -61.09375 463.68359375 C-61.96128906 463.80669922 -62.82882813 463.92980469 -63.72265625 464.05664062 C-64.63917969 464.18232422 -65.55570313 464.30800781 -66.5 464.4375 C-67.78197266 464.62022461 -67.78197266 464.62022461 -69.08984375 464.80664062 C-72.05771561 465.22231499 -75.02838883 465.61195683 -78 466 C-79.91897095 466.263573 -79.91897095 466.263573 -81.87670898 466.5324707 C-91.53584489 467.80970594 -101.05521179 468.34419148 -110.79663086 468.31567383 C-113.0933958 468.31245672 -115.38893436 468.33631479 -117.68554688 468.36132812 C-134.07846329 468.43134462 -134.07846329 468.43134462 -140 463.25 C-142.18237486 458.33965657 -141.15600222 453.9650994 -139.390625 449.109375 C-138.68861501 447.31835377 -137.97461897 445.53199395 -137.25 443.75 C-136.5150782 441.88693435 -135.78069811 440.02365492 -135.046875 438.16015625 C-134.69302734 437.27215332 -134.33917969 436.38415039 -133.97460938 435.46923828 C-132.21675217 431.01558904 -130.60560893 426.51049349 -129 422 C-130.01191406 422.04640625 -131.02382812 422.0928125 -132.06640625 422.140625 C-151.55564593 422.72834211 -171.62710238 420.12072019 -190.5625 415.5 C-191.73800415 415.21636597 -191.73800415 415.21636597 -192.93725586 414.92700195 C-197.64897325 413.67309833 -201.08888243 411.91634675 -205 409 C-201.90228239 409 -199.45073896 409.69145378 -196.50366211 410.57519531 C-177.85345393 416.1595497 -158.69404317 418.81506159 -139.28515625 419.60546875 C-135.67952576 419.76608823 -132.23919821 419.95750714 -128.6796875 420.58984375 C-117.69806447 421.81391001 -101.83496538 421.17199761 -92.6875 414.4375 C-91.10133648 412.98373744 -89.53922613 411.50337061 -88 410 C-86.43847401 408.81642298 -84.87603617 407.63372719 -83.29394531 406.4777832 C-65.46835463 393.36413552 -51.66577851 377.00173617 -39 359 C-38.59072266 358.42765625 -38.18144531 357.8553125 -37.75976562 357.265625 C-29.96103506 346.31475052 -23.71343842 334.56681358 -17.43310547 322.69873047 C-16.21050181 320.39640323 -14.97400136 318.10318932 -13.72265625 315.81640625 C-9.98142117 308.97461271 -6.70353771 302.53370419 -4.58227539 295.00683594 C-3.5157106 291.33087679 -2.32144566 287.69785411 -1.125 284.0625 C-0.88136719 283.30259766 -0.63773438 282.54269531 -0.38671875 281.75976562 C0.82741645 278.07646946 2.12413247 274.65274876 3.9765625 271.2421875 C6.78715517 265.82003554 8.04482643 259.96151806 9.5 254.0625 C9.80115723 252.87350098 10.10231445 251.68450195 10.41259766 250.45947266 C12.31268149 242.91535282 14.15407952 235.35584375 15.84570312 227.76196289 C16.89756381 223.10243619 16.89756381 223.10243619 18 222 C18.20604085 220.67218122 18.3662959 219.33704105 18.5 218 C18.88888889 214.11111111 18.88888889 214.11111111 20 213 C20.34549593 211.1614882 20.63583901 209.31254985 20.90234375 207.4609375 C21.07056641 206.32269531 21.23878906 205.18445313 21.41210938 204.01171875 C21.75897319 201.61075066 22.10533745 199.20971033 22.45117188 196.80859375 C22.62068359 195.66261719 22.79019531 194.51664063 22.96484375 193.3359375 C23.1155835 192.28970215 23.26632324 191.2434668 23.42163086 190.16552734 C24 187 24 187 25.01367188 183.53442383 C25.9963209 180.01318375 26.47318821 176.74844549 26.81640625 173.11328125 C27.00299805 171.2115918 27.00299805 171.2115918 27.19335938 169.27148438 C27.31517578 167.96501953 27.43699219 166.65855469 27.5625 165.3125 C27.80991308 162.70402299 28.06240314 160.09613512 28.31640625 157.48828125 C28.42412354 156.33884033 28.53184082 155.18939941 28.64282227 154.00512695 C29 151 29 151 29.5300293 148.98510742 C35.28717229 124.66753357 27.37293414 96.77618067 20.02416992 73.80834961 C15.49846848 59.49187908 12.38589751 44.90468875 12.6875 29.8125 C12.68427734 28.96365234 12.68105469 28.11480469 12.67773438 27.24023438 C12.72358752 21.83373152 13.5478724 17.20299001 15 12 C15.165 10.741875 15.33 9.48375 15.5 8.1875 C16 5 16 5 18 2 C12.06 1.67 6.12 1.34 0 1 C0 0.67 0 0.34 0 0 Z " fill="#727272" transform="translate(311,16)"/>
<path d="M0 0 C11.30652843 -1.30459943 19.42516907 2.39658619 28.48828125 8.7421875 C41.47039193 19.3528015 44.19735447 37.1295199 46 53 C46.28114222 58.57703859 46.301415 64.14352964 46.30297852 69.7265625 C46.31065814 71.36567088 46.31920794 73.00477538 46.32855225 74.64387512 C46.34669301 78.14571547 46.35881857 81.64750392 46.36609077 85.14938354 C46.37766052 90.6882698 46.40314847 96.22704104 46.43040466 101.76586914 C46.47189087 110.52137104 46.50438635 119.27687862 46.53287882 128.0324316 C46.58404291 143.7315874 46.64607907 159.43069511 46.71821922 175.12976837 C46.74310123 180.63534164 46.76254923 186.1408996 46.77760136 191.64650822 C46.78780715 195.0654312 46.80195193 198.48433007 46.81707764 201.90323448 C46.8232298 203.48789591 46.82769099 205.07256494 46.83033562 206.6572361 C46.83415186 208.82028209 46.84397246 210.9832221 46.85523987 213.14624023 C46.85909478 214.35626205 46.8629497 215.56628387 46.86692142 216.81297302 C46.98633171 219.6726656 47.37156097 222.21691817 48 225 C48.94412105 237.93510957 49.08903766 251.84758232 44 264 C43.01 264.33 42.02 264.66 41 265 C40.7525 265.70125 40.505 266.4025 40.25 267.125 C36.35428637 276.08514135 26.32352543 281.40854853 17.625 284.875 C14 286 14 286 10 286 C10.36691242 304.08996561 10.36691242 304.08996561 13.37890625 321.87890625 C14.0633437 325.31831204 14.10145507 328.50200559 14 332 C13.67 332 13.34 332 13 332 C9.4114162 317.29568674 8.49811233 303.55279064 8.73632812 288.45800781 C8.75627183 286.18680141 8.77407885 283.91557539 8.78992462 281.6443367 C8.82571398 276.86032103 8.87210908 272.07658016 8.92642212 267.29273987 C9.00413169 260.12953082 9.03639287 252.96668244 9.05444336 245.80310059 C9.05899623 244.03115818 9.05899623 244.03115818 9.06364107 242.22341895 C9.06972106 239.81279681 9.07571482 237.40217444 9.08162403 234.99155188 C9.09894198 228.76002815 9.12576415 222.52854758 9.15246582 216.29705811 C9.16052285 214.39513274 9.16052285 214.39513274 9.16874266 212.45478463 C9.17977228 209.85288972 9.19083478 207.25099494 9.20192909 204.6491003 C9.22779056 198.53427656 9.25263335 192.41944874 9.27750319 186.30462089 C9.32659019 174.24311616 9.37660094 162.18161547 9.42724609 150.12011719 C9.47625861 138.44694218 9.52480276 126.77376536 9.57275391 115.10058594 C9.5757409 114.37347266 9.5787279 113.64635937 9.58180541 112.89721236 C9.59679682 109.24723571 9.61177941 105.59725902 9.62675762 101.94728231 C9.74980623 71.96484915 9.87439251 41.98242256 10 12 C9.34 12 8.68 12 8 12 C7.4121875 10.4221875 7.4121875 10.4221875 6.8125 8.8125 C5.23597443 5.08341068 3.03104575 2.70336513 0 0 Z " fill="#5E5E5E" transform="translate(352,18)"/>
<path d="M0 0 C32.45610746 -0.88506662 58.5445811 7.02698552 84.4453125 27.07373047 C85.35152344 27.76982422 86.25773438 28.46591797 87.19140625 29.18310547 C90.16203907 31.67493612 90.38019396 32.49851673 90.8203125 36.38623047 C90.44068576 40.1192267 89.99831174 41.26076836 87.31884766 43.75073242 C82.97048415 46.82133209 77.86843541 48.56960673 72.9453125 50.51123047 C71.74946533 50.98987549 70.55361816 51.46852051 69.3215332 51.96166992 C61.85101848 54.89390536 54.34560116 57.54157782 46.6328125 59.76123047 C45.364375 60.12655884 45.364375 60.12655884 44.0703125 60.49926758 C39.75668715 61.66783431 35.9569024 62.34253695 31.4453125 62.07373047 C31.18878906 61.35830078 30.93226563 60.64287109 30.66796875 59.90576172 C24.88787231 44.8619417 15.23689375 31.35165989 0.4453125 24.07373047 C-5.15408023 21.94328423 -10.62722676 21.77360587 -16.5546875 22.07373047 C-18.3490625 22.10466797 -18.3490625 22.10466797 -20.1796875 22.13623047 C-25.46860711 23.60537481 -28.84249592 27.47236518 -31.83105469 32.01293945 C-32.97856231 34.07240564 -34.05619486 36.15594077 -35.1171875 38.26123047 C-40.33573596 48.14917104 -46.65234423 57.1390951 -53.20117188 66.18286133 C-54.35174376 67.79021689 -55.45820255 69.42900304 -56.5546875 71.07373047 C-57.9159375 71.47591797 -57.9159375 71.47591797 -59.3046875 71.88623047 C-63.60450404 73.45731728 -65.48655828 75.71339847 -68.5546875 79.07373047 C-69.2146875 78.74373047 -69.8746875 78.41373047 -70.5546875 78.07373047 C-69.88759766 77.38537109 -69.88759766 77.38537109 -69.20703125 76.68310547 C-68.64113281 76.06951172 -68.07523438 75.45591797 -67.4921875 74.82373047 C-66.92371094 74.22044922 -66.35523438 73.61716797 -65.76953125 72.99560547 C-64.38081258 71.19271555 -64.38081258 71.19271555 -64.6015625 69.22998047 C-65.96348521 66.14890942 -67.89235465 63.53126405 -69.8671875 60.82373047 C-76.33862497 51.70859851 -80.82226426 43.54637435 -79.5546875 32.07373047 C-78.5646875 30.58873047 -78.5646875 30.58873047 -77.5546875 29.07373047 C-77.8846875 31.05373047 -78.2146875 33.03373047 -78.5546875 35.07373047 C-77.8946875 35.07373047 -77.2346875 35.07373047 -76.5546875 35.07373047 C-76.29945313 34.49623047 -76.04421875 33.91873047 -75.78125 33.32373047 C-72.45652001 27.22486272 -66.99545132 22.88233684 -60.7265625 20.12451172 C-58.13601033 18.87116903 -55.87270932 17.3150907 -53.4921875 15.69873047 C-37.87590984 5.65969483 -18.40241095 0.53110934 0 0 Z " fill="#707070" transform="translate(243.5546875,81.92626953125)"/>
<path d="M0 0 C0.66 0.33 1.32 0.66 2 1 C1.24074219 1.67804688 0.48148438 2.35609375 -0.30078125 3.0546875 C-6.50069357 8.7900471 -10.69850973 13.304536 -12 22 C-10.46472656 21.76023438 -10.46472656 21.76023438 -8.8984375 21.515625 C-2.49482925 20.723947 3.93105931 20.76506705 10.375 20.75 C11.05075073 20.74832825 11.72650146 20.74665649 12.42272949 20.74493408 C31.86342449 20.74207667 52.3666201 22.11577477 71 28 C72.30517578 28.38091797 72.30517578 28.38091797 73.63671875 28.76953125 C85.75272245 32.49144088 99.7993864 38.58549507 107.5625 49.125 C109.05723457 52.11446914 109.63761508 53.72083673 109 57 C104.49440123 60.00373251 100.18602736 59.38209345 94.875 59.375 C93.18346802 59.3747583 93.18346802 59.3747583 91.45776367 59.37451172 C81.65970473 59.24861524 72.03016609 58.32194096 62.3125 57.125 C61.5989032 57.03804871 60.8853064 56.95109741 60.15008545 56.86151123 C53.2665862 56.00848989 46.66951 54.98110612 40 53 C37.44289555 52.49282767 34.8799014 52.0146692 32.3125 51.5625 C30.19561706 51.16903006 28.07991453 50.76966148 25.96435547 50.36914062 C24.2395089 50.04500838 22.51248632 49.73250058 20.78515625 49.421875 C9.3107099 47.01917214 -4.16136733 40.33574912 -10.875 30.375 C-13.75716973 25.38987907 -14.11791905 20.6055655 -13 15 C-10.14316284 8.58217568 -5.45531425 4.25514512 0 0 Z " fill="#737373" transform="translate(125,212)"/>
<path d="M0 0 C2.69762804 0.70506187 5.38113938 1.22877489 8.125 1.71875 C12.0541082 2.46654801 15.26256078 3.69970624 18.75 5.71875 C18.75 6.37875 18.75 7.03875 18.75 7.71875 C19.36875 7.80125 19.9875 7.88375 20.625 7.96875 C22.75 8.71875 22.75 8.71875 24 10.78125 C24.2475 11.420625 24.495 12.06 24.75 12.71875 C18.22253997 13.23407579 12.19991993 11.18496597 6.25 8.65625 C2.95805258 7.42176972 -0.37859867 6.87071815 -3.828125 6.22265625 C-6.72411917 5.62010262 -9.44602138 4.65340954 -12.25 3.71875 C-25.15221093 1.44676684 -40.87229323 0.14072767 -52.25 7.71875 C-54.58391203 10.49989056 -54.58391203 10.49989056 -53.875 13.40625 C-53.66875 14.169375 -53.4625 14.9325 -53.25 15.71875 C-39.71202504 20.13931325 -22.66030799 18.18885266 -9.25 13.71875 C5.98900511 12.73818111 18.50843405 15.33973789 32.625 21.21875 C33.32189941 21.50306885 34.01879883 21.7873877 34.73681641 22.08032227 C36.6796875 22.9375 36.6796875 22.9375 39.75 24.71875 C40.44189453 26.83007812 40.44189453 26.83007812 40.75 28.71875 C38.84895833 29.19401042 36.94791667 29.66927083 35.046875 30.14453125 C33.83773437 30.44681641 32.62859375 30.74910156 31.3828125 31.06054688 C30.08854167 31.38411458 28.79427083 31.70768229 27.5 32.03125 C26.26507813 32.33998047 25.03015625 32.64871094 23.7578125 32.96679688 C21.28590246 33.58477439 18.81357128 34.20106978 16.34082031 34.81567383 C14.01380029 35.40090955 11.68994231 35.99892561 9.37011719 36.61206055 C4.34223293 37.92901721 -0.25882818 39.11313836 -5.5 38.90625 C-6.86898437 38.86564453 -6.86898437 38.86564453 -8.265625 38.82421875 C-8.92046875 38.78941406 -9.5753125 38.75460937 -10.25 38.71875 C-10.25 39.37875 -10.25 40.03875 -10.25 40.71875 C-14.46342607 40.79384534 -18.67648036 40.84778946 -22.89038086 40.88354492 C-24.31883545 40.8984765 -25.74724548 40.91882938 -27.17553711 40.94506836 C-38.45226899 41.14679173 -49.42517453 40.97700751 -58.53125 33.45703125 C-63.84875957 28.07909543 -66.57979764 21.73996414 -67.8125 14.34375 C-66.99221368 9.05746036 -63.96750471 6.38053194 -60.25 2.71875 C-59.8271875 2.19152344 -59.404375 1.66429687 -58.96875 1.12109375 C-44.91610603 -10.34458621 -15.72410659 -4.27285505 0 0 Z " fill="#757575" transform="translate(197.25,316.28125)"/>
<path d="M0 0 C5.47753825 0.06712935 10.60479523 1.08359534 15.92578125 2.3203125 C17.37065918 2.65373657 17.37065918 2.65373657 18.84472656 2.99389648 C36.54235895 7.30199052 36.54235895 7.30199052 40.47265625 13.25390625 C41.11328125 15.1953125 41.11328125 15.1953125 40.11328125 17.1953125 C28.91581686 21.03343709 16.66318284 22.18105395 5.56640625 17.58984375 C0.91328825 14.94467954 -2.84637927 11.31633094 -4.56640625 6.15625 C-4.88671875 4.2578125 -4.88671875 4.2578125 -4.88671875 1.1953125 C-3.88671875 0.1953125 -3.88671875 0.1953125 0 0 Z " fill="#525252" transform="translate(171.88671875,244.8046875)"/>
<path d="M0 0 C0.66 0 1.32 0 2 0 C2 0.66 2 1.32 2 2 C2.66 2 3.32 2 4 2 C5.33203125 3.828125 5.33203125 3.828125 6.8125 6.25 C9.15619927 9.90663154 11.35564087 12.53469824 15 15 C14.07159639 19.34126758 11.95109315 22.76961459 9.625 26.5 C9.18744385 27.20398926 8.7498877 27.90797852 8.29907227 28.63330078 C4.4756495 34.60127375 0.08095524 39.66841354 -4.84765625 44.7421875 C-7.02464536 46.80474396 -7.02464536 46.80474396 -8 49 C-8.66 49 -9.32 49 -10 49 C-7.81681346 38.01119321 -5.57699866 27.03480097 -3.3125 16.0625 C-2.98889198 14.49284685 -2.66532408 12.92318543 -2.34179688 11.35351562 C-1.56165807 7.56891538 -0.78098448 3.78442582 0 0 Z " fill="#BBBBBB" transform="translate(129,338)"/>
<path d="M0 0 C5.26517542 -0.14914428 10.5291021 -0.25758661 15.79589844 -0.32958984 C17.58452798 -0.35962642 19.3730119 -0.40046952 21.16113281 -0.45263672 C37.94151498 -0.92967099 37.94151498 -0.92967099 43.03125 2.7734375 C44.64257812 4.31005859 44.64257812 4.31005859 46 6 C46.55623047 6.64404785 47.11246094 7.2880957 47.68554688 7.95166016 C49 10 49 10 49 14 C46.77110504 14.05428973 44.54182529 14.09292338 42.3125 14.125 C41.07113281 14.14820313 39.82976562 14.17140625 38.55078125 14.1953125 C35 14 35 14 32.53125 13 C29.09014576 11.64055141 25.82405529 11.78452111 22.1875 11.875 C21.49462891 11.88402344 20.80175781 11.89304687 20.08789062 11.90234375 C18.39177605 11.92573843 16.69584129 11.96160359 15 12 C15.75 5.375 15.75 5.375 18 2 C12.06 1.67 6.12 1.34 0 1 C0 0.67 0 0.34 0 0 Z " fill="#888888" transform="translate(311,16)"/>
<path d="M0 0 C0 0.33 0 0.66 0 1 C-10.23 1.99 -20.46 2.98 -31 4 C-29.02 6.64 -27.04 9.28 -25 12 C-21.60054072 17.51028633 -18.90660503 22.4396302 -20 29 C-20.99 29.66 -21.98 30.32 -23 31 C-29.4734086 27.19211259 -32.47835834 23.08161032 -35 16 C-36.04605167 11.33635299 -36.22210052 7.61321919 -35 3 C-23.2239411 0.99149452 -11.96212487 -0.48935965 0 0 Z " fill="#CBC7C6" transform="translate(324,28)"/>
<path d="M0 0 C3.86608397 3.63177585 7.06597911 7.56103503 10.28515625 11.7734375 C12.44891331 14.58287149 14.70969261 17.29327309 17 20 C9.58783319 19.64134677 4.43520528 17.64079463 -2 14 C-1.34 13.67 -0.68 13.34 0 13 C-0.33 12.34 -0.66 11.68 -1 11 C-1.09499503 9.50243129 -1.12987198 8.00057068 -1.125 6.5 C-1.12757812 5.7059375 -1.13015625 4.911875 -1.1328125 4.09375 C-1 2 -1 2 0 0 Z " fill="#535353" transform="translate(128,239)"/>
<path d="M0 0 C0.55300781 0.24878906 1.10601562 0.49757812 1.67578125 0.75390625 C1.20269531 1.27597656 0.72960937 1.79804688 0.2421875 2.3359375 C-4.38847356 7.49014309 -8.82096208 12.76445915 -13.1484375 18.17578125 C-15.41850097 20.86562307 -17.73608048 23.36749683 -20.32421875 25.75390625 C-20.98421875 25.75390625 -21.64421875 25.75390625 -22.32421875 25.75390625 C-22.32421875 26.74390625 -22.32421875 27.73390625 -22.32421875 28.75390625 C-22.98421875 28.75390625 -23.64421875 28.75390625 -24.32421875 28.75390625 C-21.48595845 20.91560189 -10.18067986 -1.07795434 0 0 Z " fill="#A1A1A1" transform="translate(184.32421875,153.24609375)"/>
<path d="M0 0 C0.66 0.33 1.32 0.66 2 1 C-4.93 7.93 -11.86 14.86 -19 22 C-19.66 21.67 -20.32 21.34 -21 21 C-7.21875 5.46875 -7.21875 5.46875 0 0 Z " fill="#959595" transform="translate(207,53)"/>
<path d="M0 0 C0.33 0 0.66 0 1 0 C0.95875 0.78375 0.9175 1.5675 0.875 2.375 C0.71271266 5.16116119 0.71271266 5.16116119 3 7 C2.0409375 7.8971875 2.0409375 7.8971875 1.0625 8.8125 C-2.0893197 12.15533908 -2.19824803 15.2644404 -2.5625 19.6875 C-2.64628906 20.68136719 -2.73007813 21.67523438 -2.81640625 22.69921875 C-2.87699219 23.45847656 -2.93757813 24.21773438 -3 25 C-3.33 25 -3.66 25 -4 25 C-4.58974578 15.90808586 -3.08745074 8.54562257 0 0 Z " fill="#6C6C6C" transform="translate(104,392)"/>
<path d="M0 0 C0 0.33 0 0.66 0 1 C-1.299375 1.309375 -1.299375 1.309375 -2.625 1.625 C-6.92117706 3.37529436 -8.89010473 5.59392423 -12 9 C-12.66 8.67 -13.32 8.34 -14 8 C-13.04578192 6.85073734 -12.08647955 5.70569459 -11.125 4.5625 C-10.59132812 3.92441406 -10.05765625 3.28632813 -9.5078125 2.62890625 C-6.61178117 -0.4997079 -4.08506198 -0.0888057 0 0 Z " fill="#878787" transform="translate(187,152)"/>
<path d="M0 0 C0.66 0.33 1.32 0.66 2 1 C-0.97 3.97 -3.94 6.94 -7 10 C-7.33 9.01 -7.66 8.02 -8 7 C-5.36 4.69 -2.72 2.38 0 0 Z " fill="#858585" transform="translate(125,212)"/>
<path d="M0 0 C0.33 0 0.66 0 1 0 C0.95875 0.78375 0.9175 1.5675 0.875 2.375 C0.71271266 5.16116119 0.71271266 5.16116119 3 7 C1.68 7.99 0.36 8.98 -1 10 C-1.125 2.25 -1.125 2.25 0 0 Z " fill="#818181" transform="translate(104,392)"/>
<path d="M0 0 C2.25 0.25 2.25 0.25 4 1 C3.01 2.485 3.01 2.485 2 4 C-1.125 4.1875 -1.125 4.1875 -4 4 C-2.25 1.9375 -2.25 1.9375 0 0 Z " fill="#797979" transform="translate(217,430)"/>
</svg>
